<?xml version="1.0" encoding="UTF-8" standalone="no"?>
<!-- Generator: Adobe Illustrator 19.0.0, SVG Export Plug-In . SVG Version: 6.00 Build 0)  -->

<svg
   xmlns:dc="http://purl.org/dc/elements/1.1/"
   xmlns:cc="http://creativecommons.org/ns#"
   xmlns:rdf="http://www.w3.org/1999/02/22-rdf-syntax-ns#"
   xmlns:svg="http://www.w3.org/2000/svg"
   xmlns="http://www.w3.org/2000/svg"
   xmlns:sodipodi="http://sodipodi.sourceforge.net/DTD/sodipodi-0.dtd"
   xmlns:inkscape="http://www.inkscape.org/namespaces/inkscape"
   version="1.1"
   id="Layer_1"
   x="0px"
   y="0px"
   viewBox="0 0 512 512"
   xml:space="preserve"
   sodipodi:docname="back.svg"
   inkscape:version="0.92.4 5da689c313, 2019-01-14"
   width="512"
   height="512"><metadata
   id="metadata324"><rdf:RDF><cc:Work
       rdf:about=""><dc:format>image/svg+xml</dc:format><dc:type
         rdf:resource="http://purl.org/dc/dcmitype/StillImage" /></cc:Work></rdf:RDF></metadata><defs
   id="defs322" /><sodipodi:namedview
   pagecolor="#ffffff"
   bordercolor="#666666"
   borderopacity="1"
   objecttolerance="10"
   gridtolerance="10"
   guidetolerance="10"
   inkscape:pageopacity="0"
   inkscape:pageshadow="2"
   inkscape:window-width="640"
   inkscape:window-height="480"
   id="namedview320"
   showgrid="false"
   inkscape:zoom="0.54682737"
   inkscape:cx="143.15947"
   inkscape:cy="466.32567"
   inkscape:current-layer="Layer_1" />
<ellipse
   style="fill:#ff3d62;stroke-width:1.00000787"
   cx="255.996"
   cy="256"
   id="circle281"
   rx="255.996"
   ry="256" />
<path
   style="fill:#c2001b;stroke-width:1.00000787"
   d="m 512,256.003 c 0,-18.23328 -1.921,-36.01556 -5.544,-53.16983 l -78.367,-78.36822 h -66.997 v 113.32677 c 0,15.62724 -12.714,28.34144 -28.342,28.34144 h -80.583 v -7.16011 L 194.929,201.73515 50.415,299.63268 262.7,511.922 C 400.987,508.36694 512,395.15118 512,256.003 Z"
   id="path283"
   inkscape:connector-curvature="0" />
<path
   style="fill:#ffffff;stroke-width:1.00000787"
   d="m 361.092,124.46495 v 113.32677 c 0,15.62724 -12.714,28.34144 -28.342,28.34144 H 194.928 v -64.39701 l -144.513,97.89653 144.514,97.89653 v -64.398 H 332.75 c 52.57,0 95.338,-42.76967 95.338,-95.33849 V 124.46495 Z"
   id="path285"
   inkscape:connector-curvature="0" />
<path
   style="fill:#e1e1e3;stroke-width:1.00000787"
   d="m 361.092,124.46495 v 113.32677 c 0,15.62724 -12.714,28.34144 -28.342,28.34144 h -76.767 v 66.99805 h 76.767 c 52.57,0 95.338,-42.76967 95.338,-95.33849 V 124.46495 Z"
   id="path287"
   inkscape:connector-curvature="0" />
<g
   id="g289"
   transform="matrix(1,0,0,1.0000156,0,-0.00399787)">
</g>
<g
   id="g291"
   transform="matrix(1,0,0,1.0000156,0,-0.00399787)">
</g>
<g
   id="g293"
   transform="matrix(1,0,0,1.0000156,0,-0.00399787)">
</g>
<g
   id="g295"
   transform="matrix(1,0,0,1.0000156,0,-0.00399787)">
</g>
<g
   id="g297"
   transform="matrix(1,0,0,1.0000156,0,-0.00399787)">
</g>
<g
   id="g299"
   transform="matrix(1,0,0,1.0000156,0,-0.00399787)">
</g>
<g
   id="g301"
   transform="matrix(1,0,0,1.0000156,0,-0.00399787)">
</g>
<g
   id="g303"
   transform="matrix(1,0,0,1.0000156,0,-0.00399787)">
</g>
<g
   id="g305"
   transform="matrix(1,0,0,1.0000156,0,-0.00399787)">
</g>
<g
   id="g307"
   transform="matrix(1,0,0,1.0000156,0,-0.00399787)">
</g>
<g
   id="g309"
   transform="matrix(1,0,0,1.0000156,0,-0.00399787)">
</g>
<g
   id="g311"
   transform="matrix(1,0,0,1.0000156,0,-0.00399787)">
</g>
<g
   id="g313"
   transform="matrix(1,0,0,1.0000156,0,-0.00399787)">
</g>
<g
   id="g315"
   transform="matrix(1,0,0,1.0000156,0,-0.00399787)">
</g>
<g
   id="g317"
   transform="matrix(1,0,0,1.0000156,0,-0.00399787)">
</g>
</svg>