<?xml version="1.0" encoding="UTF-8" standalone="no"?>
<!-- Generator: Adobe Illustrator 19.0.0, SVG Export Plug-In . SVG Version: 6.00 Build 0)  -->

<svg
   xmlns:dc="http://purl.org/dc/elements/1.1/"
   xmlns:cc="http://creativecommons.org/ns#"
   xmlns:rdf="http://www.w3.org/1999/02/22-rdf-syntax-ns#"
   xmlns:svg="http://www.w3.org/2000/svg"
   xmlns="http://www.w3.org/2000/svg"
   xmlns:sodipodi="http://sodipodi.sourceforge.net/DTD/sodipodi-0.dtd"
   xmlns:inkscape="http://www.inkscape.org/namespaces/inkscape"
   version="1.1"
   id="Capa_1"
   x="0px"
   y="0px"
   viewBox="0 0 512 512"
   xml:space="preserve"
   sodipodi:docname="refresh.svg"
   width="512"
   height="512"
   inkscape:version="0.92.4 5da689c313, 2019-01-14"><metadata
   id="metadata83"><rdf:RDF><cc:Work
       rdf:about=""><dc:format>image/svg+xml</dc:format><dc:type
         rdf:resource="http://purl.org/dc/dcmitype/StillImage" /></cc:Work></rdf:RDF></metadata><defs
   id="defs81" /><sodipodi:namedview
   pagecolor="#ffffff"
   bordercolor="#666666"
   borderopacity="1"
   objecttolerance="10"
   gridtolerance="10"
   guidetolerance="10"
   inkscape:pageopacity="0"
   inkscape:pageshadow="2"
   inkscape:window-width="640"
   inkscape:window-height="480"
   id="namedview79"
   showgrid="false"
   inkscape:zoom="0.54682737"
   inkscape:cx="11.743786"
   inkscape:cy="328.23966"
   inkscape:current-layer="Capa_1" />
<g
   id="g101"
   transform="matrix(0.9776823,0,0,0.9776823,11.426662,11.426662)"
   style="opacity:1;fill:#666666;fill-opacity:1"><path
     style="fill:#666666;fill-opacity:1"
     d="M 443.5,15.099 C 441.7,3.1 426.7,-2.001 418.001,6.7 L 387.1,37.599 C 347.5,13.599 302.5,0 256,0 116.499,0 3.6,110.2 0,249.399 c 0,7.8 5.4,14.401 12.9,15.3 l 61,8.699 c 9,1.201 17.1,-5.698 17.1,-15 C 90.399,213.698 107.199,172 138.701,140.2 169.9,108.399 211.601,91 256,91 c 22.2,0 44.399,4.499 64.501,13.2 l -29.702,29.7 c -8.699,8.699 -3.6,23.699 8.401,25.499 L 447.7,180.7 c 9.899,1.5 18.6,-7.2 17.1,-17.1 z"
     id="path89"
     inkscape:connector-curvature="0" /><path
     style="fill:#666666;fill-opacity:1"
     d="m 499.1,248.5 -61,-8.701 C 430,238.9 421,245.799 421,256 c 0,90.899 -74.099,165 -165,165 -22.2,0 -44.099,-4.501 -64.2,-13.2 l 28.801,-28.801 C 229.3,370.3 224.201,355.3 211.902,353.8 L 63.401,332.5 c -9.6,-1.5 -18.301,6.899 -16.8,16.8 L 67.9,497.8 c 1.501,12.299 16.501,17.401 25.201,8.699 l 31.8,-31.8 C 164.5,498.399 209.5,512 256,512 c 138.9,0 251.8,-109.6 256,-248.2 0,-7.8 -5.4,-14.401 -12.9,-15.3 z"
     id="path91"
     inkscape:connector-curvature="0" /><path
     style="fill:#666666;fill-opacity:1"
     d="M 320.501,104.2 C 300.399,95.499 278.2,91 256,91 V 0 c 46.5,0 91.5,13.599 131.1,37.599 L 418.001,6.7 C 426.7,-2.001 441.7,3.1 443.5,15.099 l 21.301,148.5 c 1.5,9.901 -7.202,18.6 -17.1,17.1 l -148.5,-21.301 c -12.001,-1.8 -17.1,-16.8 -8.401,-25.499 z"
     id="path93"
     inkscape:connector-curvature="0" /><path
     style="fill:#666666;fill-opacity:1"
     d="M 512,263.8 C 507.8,402.4 394.9,512 256,512 v -91 c 90.901,0 165,-74.101 165,-165 0,-10.201 9,-17.1 17.1,-16.201 l 61,8.701 c 7.5,0.899 12.9,7.5 12.9,15.3 z"
     id="path95"
     inkscape:connector-curvature="0" /></g><path
   style="fill:#32d736;stroke-width:0.97768229"
   d="M 433.6021,14.762025 C 431.84227,3.0308155 417.17704,-1.9563418 408.67218,6.5504711 L 378.46082,36.759877 C 339.7446,13.295501 295.7489,0 250.28667,0 113.89901,0 3.5196563,107.74059 0,243.83299 c 0,7.62592 5.2794844,14.07961 12.612102,14.95854 l 59.63862,8.50486 c 8.799141,1.17419 16.718367,-5.57084 16.718367,-14.66524 -0.587587,-43.7024 15.837471,-84.4698 46.636431,-115.56009 30.5027,-31.09128 71.27304,-48.101968 114.68115,-48.101968 21.70454,0 43.40811,4.398588 63.06148,12.905408 l -29.03911,29.03717 c -8.50486,8.50485 -3.51966,23.17009 8.2135,24.92992 l 145.18582,20.82561 c 9.67808,1.46652 18.18489,-7.03932 16.71838,-16.71838 z"
   id="path40"
   inkscape:connector-curvature="0" />
<path
   style="fill:#fd003a;stroke-width:0.97768229"
   d="m 487.96123,242.95405 -59.63861,-8.50681 c -7.91923,-0.87893 -16.71838,5.8661 -16.71838,15.83943 0,88.87034 -72.44527,161.31758 -161.31757,161.31758 -21.70455,0 -43.11481,-4.40055 -62.76721,-12.90541 l 28.15823,-28.15822 c 8.50486,-8.50486 3.51966,-23.17009 -8.50486,-24.63662 L 61.986036,325.07937 c -9.385751,-1.46653 -17.892565,6.74503 -16.425063,16.42506 l 20.823655,145.18582 c 1.467501,12.02452 16.132735,17.01265 24.638571,8.50485 l 31.090291,-31.09029 c 38.71525,23.17108 82.71095,36.46853 128.17318,36.46853 135.80007,0 246.1804,-107.15398 250.28667,-242.66074 0,-7.62593 -5.27949,-14.07961 -12.61211,-14.95855 z"
   id="path42"
   inkscape:connector-curvature="0" />
<path
   style="fill:#10bb67;stroke-width:0.97768229"
   d="M 313.34815,101.8745 C 293.69478,93.36768 271.99121,88.969092 250.28667,88.969092 V 0 C 295.7489,0 339.7446,13.295501 378.46082,36.759877 L 408.67218,6.5504711 c 8.50486,-8.5068129 23.17009,-3.5196556 24.92992,8.2115539 l 20.82561,145.185825 c 1.46653,9.68003 -7.04127,18.18489 -16.71836,16.71836 L 292.52352,155.8406 c -11.73316,-1.75983 -16.71837,-16.42506 -8.21351,-24.92992 z"
   id="path44"
   inkscape:connector-curvature="0" />
<path
   style="fill:#e50027;stroke-width:0.97768229"
   d="m 500.57334,257.9126 c -4.10627,135.50676 -114.4866,242.66074 -250.28667,242.66074 v -88.96909 c 88.8723,0 161.31757,-72.44724 161.31757,-161.31758 0,-9.97333 8.79915,-16.71836 16.71838,-15.83943 l 59.63861,8.50681 c 7.33262,0.87894 12.61211,7.33262 12.61211,14.95855 z"
   id="path46"
   inkscape:connector-curvature="0" />















</svg>