<svg height="488pt" viewBox="0 0 488 488.04187" width="488pt" xmlns="http://www.w3.org/2000/svg"><path d="m474.101562 445.589844c3.789063 3.777344 5.917969 8.90625 5.917969 14.253906 0 5.351562-2.128906 10.480469-5.917969 14.257812-7.535156 7.519532-19.613281 7.898438-27.601562.859376-.300781-.3125-.609375-.550782-.910156-.859376l-60.890625-60.882812 14.320312-14.320312 14.203125-14.199219zm0 0" fill="#00acea"/><path d="m241.152344 386.558594c-18.605469-14.410156-31.746094-34.722656-37.261719-57.597656-.046875-.140626-.082031-.285157-.109375-.429688-11.671875-49.179688 13.792969-99.609375 60.296875-119.414062 46.5-19.800782 100.507813-3.210938 127.871094 39.285156 27.367187 42.492187 20.128906 98.523437-17.140625 132.667968-37.265625 34.140626-93.714844 36.460938-133.65625 5.488282zm81.847656-156.558594c-22.929688-5.609375-47.167969-.375-65.746094 14.195312-18.574218 14.570313-29.429687 36.867188-29.441406 60.476563 0 2.507813.117188 4.988281.359375 7.4375 3.753906 38.984375 36.199219 68.925781 75.355469 69.542969 39.160156.621094 72.535156-28.277344 77.523437-67.121094 4.988281-38.847656-20.003906-75.238281-58.050781-84.53125zm0 0" fill="#fedb41"/><path d="m325.980469 202.609375v.589844c-6.988281-1.460938-14.109375-2.195313-21.25-2.1875-6.113281-.003907-12.21875.53125-18.238281 1.597656h-14.792969c.136719-19.300781-2.972657-38.488281-9.199219-56.757813 12.140625-6.96875 23.019531-15.929687 32.179688-26.511718 20.21875 23.023437 31.347656 52.628906 31.300781 83.269531zm0 0" fill="#00efd1"/><path d="m304.730469 227.808594c6.15625-.003906 12.289062.734375 18.269531 2.191406-4.582031 20.714844-14.324219 39.9375-28.320312 55.878906-9.167969-10.582031-20.046876-19.546875-32.1875-26.519531 2.5625-7.347656 4.578124-14.875 6.039062-22.519531 11.136719-5.945313 23.574219-9.046875 36.199219-9.03125zm0 0" fill="#00acea"/><path d="m294.679688 285.878906c-16.824219 19.242188-39.085938 32.933594-63.847657 39.261719l-.242187.058594c-1.183594-4.285157-1.996094-8.664063-2.417969-13.089844 15.488281-13.800781 27.027344-31.929687 34.320313-52.75 12.140624 6.972656 23.019531 15.9375 32.1875 26.519531zm0 0" fill="#00efd1"/><path d="m202.8125 76.21875c35.308594.875 68.632812 16.519531 91.867188 43.121094-9.160157 10.582031-20.039063 19.542968-32.179688 26.511718-10.847656-30.953124-31.078125-55.921874-59.6875-69.632812zm0 0" fill="#00acea"/><path d="m271.699219 202.609375c0 1.261719-.007813 2.519531-.027344 3.769531v.011719c-20.675781 6.96875-38.632813 20.265625-51.332031 38.007813h-.007813c-6.765625-1.097657-13.609375-1.636719-20.460937-1.609376h-.320313v-40.179687zm0 0" fill="#00efd1"/><path d="m271.699219 202.609375h-72.148438v-40.179687h.320313c21.972656.078124 43.574218-5.640626 62.628906-16.578126 6.226562 18.269532 9.335938 37.457032 9.199219 56.757813zm0 0" fill="#00acea"/><path d="m262.492188 259.359375c-7.292969 20.820313-18.832032 38.949219-34.320313 52.75-.242187-2.449219-.359375-4.929687-.359375-7.4375-.03125-19.414063 7.316406-38.109375 20.558594-52.300781l.070312.058594c4.824219 2.015624 9.515625 4.328124 14.050782 6.929687zm0 0" fill="#00acea"/><path d="m202.8125 76.21875c28.609375 13.710938 48.839844 38.679688 59.6875 69.632812-19.054688 10.9375-40.65625 16.65625-62.628906 16.578126h-.320313v-86.25c1.089844 0 2.171875.011718 3.25.039062zm0 0" fill="#00efd1"/><path d="m199.550781 317.550781v11.488281c-1.089843 0-2.179687-.007812-3.261719-.039062h-.007812c-28.570312-13.699219-48.78125-38.628906-59.628906-69.519531 19.144531-10.96875 40.832031-16.722657 62.898437-16.691407zm0 0" fill="#00efd1"/><path d="m199.550781 202.609375v40.179687c-22.066406-.03125-43.753906 5.722657-62.898437 16.691407-6.265625-18.300781-9.394532-37.527344-9.25-56.871094zm0 0" fill="#00acea"/><path d="m199.550781 162.429688v40.179687h-72.148437c-.140625-19.34375 2.984375-38.574219 9.25-56.878906 19.144531 10.96875 40.832031 16.726562 62.898437 16.699219zm0 0" fill="#00efd1"/><path d="m199.550781 87.671875v74.757813c-22.066406.027343-43.753906-5.730469-62.898437-16.699219 10.847656-30.890625 31.070312-55.808594 59.636718-69.511719h.011719c1.082031-.027344 2.160157-.039062 3.25-.039062zm0 0" fill="#00acea"/><path d="m196.289062 76.21875c-28.566406 13.703125-48.789062 38.621094-59.636718 69.511719-12.132813-6.949219-23.027344-15.867188-32.230469-26.390625 23.234375-26.601563 56.558594-42.246094 91.867187-43.121094zm0 0" fill="#00efd1"/><path d="m136.652344 259.480469c10.847656 30.890625 31.058594 55.820312 59.628906 69.519531-35.308594-.878906-68.628906-16.519531-91.859375-43.121094 9.203125-10.523437 20.097656-19.445312 32.230469-26.398437zm0 0" fill="#00acea"/><path d="m136.652344 145.730469c-6.265625 18.304687-9.390625 37.535156-9.25 56.878906h-54.28125c-.046875-30.640625 11.082031-60.246094 31.300781-83.269531 9.203125 10.523437 20.097656 19.441406 32.230469 26.390625zm0 0" fill="#00acea"/><path d="m127.402344 202.609375c-.144532 19.34375 2.984375 38.570313 9.25 56.871094-12.132813 6.953125-23.027344 15.875-32.230469 26.398437-20.21875-23.023437-31.347656-52.628906-31.300781-83.269531zm0 0" fill="#00efd1"/><g fill="#083863"><path d="m418.878906 379.042969c-1.5-1.5-3.535156-2.34375-5.65625-2.34375-2.125 0-4.160156.84375-5.660156 2.34375l-8.542969 8.542969-9.871093-9.871094c34.183593-39.382813 36.496093-97.203125 5.574218-139.191406 2.851563-12.804688 4.316406-25.875 4.355469-38.992188 0-47.542969-19.558594-96.515625-53.65625-134.359375-37.867187-42.027344-89.671875-65.171875-145.871094-65.171875-34.867187 0-69.875 10-101.238281 28.933594-20.097656 12.183594-38.140625 27.46875-53.460938 45.289062l1.53125-36.707031-15.984374-.667969-2.480469 59.460938c-.089844 2.175781.710937 4.296875 2.21875 5.867187 1.507812 1.574219 3.59375 2.464844 5.773437 2.464844.125 0 .25 0 .375-.007813l55.722656-2.480468-.710937-15.984375-36.949219 1.640625c14.746094-17.890625 32.402344-33.164063 52.230469-45.175782 28.871094-17.421874 61.019531-26.632812 92.972656-26.632812 51.609375 0 99.191407 21.265625 133.984375 59.878906 31.023438 34.429688 49.546875 80.65625 49.546875 123.652344-.015625 7.980469-.621093 15.949219-1.8125 23.84375-13.382812-12.597656-29.671875-21.703125-47.414062-26.5-2.992188-70.65625-60.148438-126.953125-130.839844-128.875h-6.925781c-72.898438 1.925781-130.996094 61.570312-130.996094 134.496094-.003906 72.921875 58.085938 132.574218 130.984375 134.503906h.046875c.558594 0 1.125.011719 1.6875.019531 5.0625 16.636719 13.929688 31.867188 25.902344 44.476563-8.015625 1.042968-16.085938 1.566406-24.164063 1.5625-51.546875 0-99.128906-21.109375-133.980469-59.871094-31.027343-34.503906-49.550781-81.1875-49.550781-123.1875h-15.9999998c0 46 20.0585938 96.523438 53.6523438 133.886719 37.929687 42.179687 89.734375 65.292969 145.878906 65.292969 13.335938-.011719 26.636719-1.351563 39.707031-4 42.015626 30.371093 99.410157 27.828124 138.574219-6.140626l9.875 9.863282-8.664062 8.660156c-3.121094 3.125-3.121094 8.1875 0 11.3125l60.855469 60.84375c.261718.265625.523437.511719.789062.75l.0625.046875c.132812.136719.269531.269531.410156.402344 11.386719 10.132812 28.773438 9.367187 39.222656-1.730469 10.453126-11.097656 10.175782-28.496094-.621093-39.253906zm-314-105.097657c-13.796875-18.246093-21.960937-40.125-23.488281-62.945312h38.167969c.535156 15.34375 3.0625 30.550781 7.519531 45.238281-8.011719 5.09375-15.457031 11.03125-22.203125 17.707031zm22.199219-124.488281c-4.457031 14.792969-6.984375 30.101563-7.519531 45.542969h-38.167969c1.523437-22.910156 9.683594-44.882812 23.484375-63.238281 6.75 6.671875 14.191406 12.605469 22.203125 17.695312zm136.441406 45.542969h-55.5v-24.78125c17.3125-.9375 34.277344-5.234375 49.949219-12.652344 3.269531 12.226563 5.132812 24.785156 5.550781 37.433594zm-55.5-40.785156v-66.371094c20.316407 12.917969 36.054688 31.90625 44.980469 54.265625-14.058594 6.9375-29.339844 11.050781-44.980469 12.105469zm-16-66.367188v66.320313c-15.640625-1-30.917969-5.144531-44.921875-12.183594 9.675782-23.753906 24.921875-42.242187 44.921875-54.136719zm0 82.339844v24.8125h-56.441406c.578125-12.710938 2.613281-25.316406 6.066406-37.5625 15.785157 7.535156 32.90625 11.871094 50.375 12.75zm-56.441406 40.8125h56.441406v24.03125c-17.492187 1.015625-34.613281 5.480469-50.375 13.136719-3.453125-12.113281-5.488281-24.585938-6.066406-37.167969zm56.441406 40.054688v66.324218c-20-11.894531-35.242187-30.386718-44.921875-54.152344 14.003906-7.035156 29.285156-11.175781 44.921875-12.171874zm25.011719-15.042969c-3.074219-.386719-6.011719-.863281-9.011719-1.03125v-23.980469h36.582031c-10.570312 6-19.792968 15.117188-27.570312 25.011719zm68.808594-41.011719h-6.300782c-.53125-15.398438-3.042968-30.667969-7.476562-45.421875 8.019531-5.175781 15.460938-11.203125 22.1875-17.976563 13.597656 18.140626 21.714844 39.796876 23.394531 62.402344-10.589843-1.273437-21.3125-.9375-31.804687.996094zm-2.082032-75.640625c-5.277343 5.402344-11.074218 10.277344-17.300781 14.554687-6.78125-16.40625-16.835937-31.257812-29.542969-43.652343 17.679688 5.890625 33.726563 15.859375 46.84375 29.097656zm-121.5625-29.101563c-12.679687 12.371094-22.71875 27.1875-29.5 43.550782-6.226562-4.257813-12.027343-9.105469-17.324218-14.476563 13.113281-13.226562 29.152344-23.183593 46.824218-29.074219zm-46.828124 195.628907c5.296874-5.371094 11.101562-10.222657 17.328124-14.488281 6.78125 16.371093 16.816407 31.1875 29.5 43.5625-17.671874-5.890626-33.710937-15.847657-46.828124-29.074219zm189.363281 114.433593c-21.257813.074219-41.921875-7-58.675781-20.082031-17.148438-13.308593-29.273438-32.046875-34.382813-53.144531-.027344-.113281-.058594-.226562-.089844-.335938 0-.023437-.011719-.042968-.015625-.066406-1.699218-7.21875-2.558594-14.605468-2.554687-22.019531-.050781-19.953125 6.191406-39.410156 17.832031-55.613281 11.734375-16.417969 28.296875-28.765625 47.378906-35.328125 4.480469-1.496094 9.042969-2.742188 13.664063-3.730469 12.101562-1.984375 24.464843-1.714844 36.464843.789062 21.949219 4.644532 41.578126 16.832032 55.476563 34.445313 13.421875 16.871094 20.691406 37.816406 20.613281 59.375-.074218 52.828125-42.882812 95.636719-95.710937 95.710937zm163.640625 68.199219c-4.492188 4.402344-11.59375 4.667969-16.398438.605469-.191406-.183594-.382812-.363281-.578125-.535156l-.0625-.050782c-.027343-.03125-.058593-.0625-.089843-.09375l-55.226563-55.226562 17.207031-17.203125 55.179688 55.1875c2.328125 2.28125 3.640625 5.402344 3.632812 8.664063-.003906 3.257812-1.324218 6.378906-3.664062 8.648437zm0 0"/><path d="m382.320312 270.152344c-11.601562-26.054688-35.511718-44.542969-63.648437-49.21875-28.136719-4.675782-56.742187 5.085937-76.152344 25.988281-14.617187 15.671875-22.730469 36.316406-22.699219 57.75 0 2.753906.132813 5.519531.402344 8.199219 3.253906 33.453125 25.933594 61.835937 57.84375 72.394531s67.046875 1.296875 89.609375-23.613281c22.5625-24.914063 28.308594-60.789063 14.65625-91.503906zm-69.21875-33.835938c-4.011718 13.488282-10.398437 26.148438-18.855468 37.394532-6.730469-6.738282-14.167969-12.734376-22.1875-17.878907 1.339844-4.398437 2.5-8.9375 3.5-13.554687 11.710937-5.457032 24.714844-7.523438 37.542968-5.960938zm-76.359374 78.761719c12.785156-12.414063 22.890624-27.3125 29.699218-43.78125 6.230469 4.28125 12.027344 9.15625 17.3125 14.5625-13.125 13.339844-29.242187 23.355469-47.015625 29.21875zm13.796874-52.933594c.664063.3125 1.324219.628907 1.980469.957031-3.875 9.6875-8.980469 18.835938-15.191406 27.222657 2.183594-10.285157 6.703125-19.929688 13.214844-28.179688zm-9.683593 68.40625c42.457031-13.734375 75.347656-47.617187 87.820312-90.460937 16.226563 6.066406 29.601563 17.980468 37.5 33.402344-18.976562 41.296874-51.96875 75.003906-91.277343 93.25-15.414063-7.460938-27.535157-20.347657-34.039063-36.191407zm63.875 42.96875c-2.507813-.003906-5.015625-.140625-7.507813-.414062 31.074219-18.132813 57.550782-45.304688 75.769532-77.78125 2.726562 19.71875-3.226563 39.652343-16.316407 54.648437-13.09375 14.996094-32.039062 23.585938-51.945312 23.546875zm0 0"/></g></svg>